<?xml version="1.0" standalone="no"?>
<!DOCTYPE svg PUBLIC "-//W3C//DTD SVG 20010904//EN"
 "http://www.w3.org/TR/2001/REC-SVG-20010904/DTD/svg10.dtd">
<svg version="1.0" xmlns="http://www.w3.org/2000/svg"
 width="960.000000pt" height="960.000000pt" viewBox="0 0 960.000000 960.000000"
 preserveAspectRatio="xMidYMid meet">

<g transform="translate(0.000000,960.000000) scale(0.100000,-0.100000)"
fill="#000000" stroke="none">
<path d="M7 9593 c-4 -3 -7 -2163 -7 -4800 l0 -4793 4800 0 4800 0 -2 4797 -3
4798 -4791 3 c-2635 1 -4794 -1 -4797 -5z m4078 -2483 l0 -335 -185 2 -185 2
-3 323 c-1 178 0 329 3 336 3 10 46 12 187 10 l183 -3 0 -335z m35 -840 c4
-342 7 -389 23 -417 24 -45 22 -65 -5 -58 -340 77 -586 100 -968 92 -242 -6
-371 -17 -593 -53 -54 -9 -101 -14 -104 -10 -3 3 0 36 7 73 47 250 200 472
391 562 120 58 184 72 341 78 196 8 360 -22 452 -82 l26 -17 0 111 0 111 213
-2 212 -3 5 -385z m-208 -535 c53 -13 139 -35 190 -49 51 -13 106 -27 122 -31
28 -6 29 -7 23 -58 -14 -116 -81 -225 -176 -290 l-50 -33 25 -43 c13 -24 37
-85 52 -135 l27 -91 0 -730 0 -730 -211 -3 -211 -2 -6 182 c-5 194 -18 262
-74 413 -39 106 -146 316 -178 352 -5 6 -28 34 -50 61 -69 84 -164 142 -236
142 -43 0 -104 -34 -128 -73 -31 -51 -51 -142 -51 -239 l0 -88 63 0 c156 0
284 -80 354 -220 25 -50 28 -65 28 -160 0 -100 -2 -109 -34 -175 -44 -88 -121
-166 -187 -189 -64 -23 -194 -31 -269 -17 -86 16 -176 65 -235 127 -96 101
-138 236 -147 474 -15 399 64 647 246 780 90 66 160 91 272 97 117 7 205 -11
324 -67 104 -49 199 -132 290 -255 13 -18 14 -6 15 119 0 261 -50 360 -211
418 -57 20 -82 23 -224 23 -124 0 -176 -4 -230 -19 -151 -40 -265 -128 -324
-250 -18 -36 -35 -66 -38 -66 -5 0 -90 66 -231 178 l-42 34 52 66 c98 123 119
146 193 202 98 75 253 137 416 165 165 29 467 14 600 -30 50 -17 51 -17 76 6
37 36 53 72 59 141 6 62 10 88 16 88 2 0 47 -11 100 -25z m1531 -171 c18 -9
65 -44 106 -76 101 -81 112 -85 175 -54 28 14 62 36 76 48 107 99 170 116 292
78 156 -48 302 -192 387 -383 57 -127 56 -111 56 -897 l0 -725 -210 0 -210 0
-5 735 -5 735 -27 51 c-24 46 -88 114 -106 114 -4 0 -37 -15 -72 -34 -187 -99
-312 -99 -480 -2 -58 33 -77 33 -121 -3 -45 -38 -88 -126 -101 -210 -14 -86
-3 -309 18 -386 9 -33 36 -154 59 -270 24 -115 44 -205 44 -200 1 6 37 55 81
110 44 55 80 103 80 108 0 4 -10 11 -22 16 -13 5 -42 26 -66 46 -109 95 -152
229 -121 377 16 74 40 117 97 174 64 65 69 68 135 92 80 30 151 37 248 22 99
-14 143 -34 192 -89 97 -108 139 -273 101 -400 -21 -71 -139 -266 -194 -321
-3 -3 -27 -34 -55 -70 -27 -36 -52 -67 -55 -70 -32 -28 -283 -397 -320 -471
l-30 -59 -233 2 -232 3 -6 195 c-7 208 -16 266 -77 540 -88 393 -87 388 -87
520 1 148 24 250 85 375 71 145 166 240 323 325 124 66 220 85 280 54z m1765
-1816 l-3 -193 -190 0 -190 0 -3 180 c-1 98 0 185 2 192 4 10 50 13 196 13
l190 0 -2 -192z m302 -788 c0 -24 -25 -76 -49 -103 -49 -57 -183 -63 -234 -12
-18 17 -23 80 -8 103 4 8 26 16 49 19 48 6 74 -16 82 -72 l5 -35 33 20 c21 13
40 36 49 60 14 34 21 40 45 40 22 0 28 -5 28 -20z m-4830 -198 c0 -10 -7 -28
-17 -41 -13 -19 -14 -28 -5 -42 8 -12 12 -77 12 -184 l0 -166 -32 3 -33 3 -3
101 c-3 96 -4 102 -28 114 -56 30 -139 2 -132 -44 2 -14 12 -22 29 -24 61 -7
84 -88 37 -132 -31 -28 -83 -26 -113 5 -22 21 -25 33 -25 96 0 87 19 131 65
153 37 18 117 21 145 6 22 -12 31 -2 24 27 -7 26 -56 48 -108 48 -30 0 -44 -7
-67 -33 -21 -23 -37 -32 -60 -32 -27 0 -30 3 -24 23 23 74 71 101 180 102 68
0 80 3 83 18 5 25 72 24 72 -1z m4740 0 c0 -10 -7 -28 -17 -41 -13 -19 -14
-28 -5 -42 8 -12 12 -76 12 -184 l0 -165 -30 0 -30 0 0 83 c0 45 -3 92 -6 104
-8 29 -63 55 -102 47 -60 -12 -84 -73 -32 -81 61 -9 86 -94 39 -132 -30 -26
-80 -27 -110 -2 -21 17 -24 29 -27 98 -3 90 7 116 58 151 29 19 45 23 90 20
30 -2 62 -6 70 -9 21 -6 15 40 -8 57 -46 34 -135 20 -164 -25 -16 -27 -84 -31
-74 -5 3 9 6 19 6 23 0 16 37 50 78 71 36 19 52 21 107 15 58 -6 65 -5 75 14
14 27 70 30 70 3z m-6392 -38 c53 -39 62 -74 62 -236 l0 -148 -35 0 -35 0 0
150 c0 141 -1 150 -22 170 -40 37 -98 39 -133 3 -16 -16 -16 -17 2 -24 10 -4
25 -14 32 -23 12 -14 10 -20 -13 -41 -19 -17 -26 -34 -26 -60 0 -31 3 -35 27
-35 38 0 63 -27 63 -68 0 -105 -136 -110 -156 -7 -9 52 0 168 14 173 20 6 14
22 -8 22 -29 0 -34 23 -14 61 20 40 35 55 71 75 39 21 135 14 171 -12z m247 1
c24 -23 25 -31 26 -142 1 -65 1 -122 0 -127 -6 -33 10 -34 71 -4 35 16 66 35
70 42 4 6 8 64 8 129 l0 117 36 0 35 0 -2 -137 c-2 -97 1 -145 10 -161 26 -48
-15 -112 -70 -112 -22 0 -40 9 -60 31 l-29 31 -40 -30 c-28 -20 -48 -28 -65
-24 -25 4 -25 6 -25 106 0 113 -6 146 -26 146 -8 0 -28 13 -46 29 -30 27 -32
31 -23 67 16 64 85 85 130 39z m432 1 c28 -24 28 -25 30 -158 2 -73 3 -136 3
-140 0 -3 18 2 40 13 21 10 43 19 48 19 4 0 18 9 30 20 20 19 22 30 22 140 l0
120 36 0 35 0 -1 -132 c-2 -79 2 -145 9 -161 17 -43 13 -65 -14 -92 -34 -35
-79 -33 -115 5 l-28 30 -36 -25 c-20 -14 -50 -25 -66 -25 l-30 0 0 125 c0 117
-1 125 -19 125 -11 0 -32 11 -47 24 -22 18 -28 32 -27 60 2 70 75 99 130 52z
m1500 -2 c13 -12 18 -41 22 -116 l6 -99 34 106 c29 93 36 105 56 105 21 0 27
-12 55 -97 18 -54 36 -102 40 -106 4 -5 7 42 6 105 l-1 113 33 3 32 3 -2 -203
-3 -203 -35 0 -35 0 -40 137 c-22 75 -43 140 -47 143 -4 4 -25 -53 -48 -126
-23 -74 -43 -140 -46 -147 -2 -8 -16 -12 -36 -10 l-33 3 -3 128 c-2 116 -4
127 -21 127 -10 0 -30 9 -45 21 -58 46 -14 148 60 136 19 -3 42 -13 51 -23z
m573 -3 c46 -33 50 -55 47 -226 l-2 -160 -30 0 -30 0 -3 150 c-1 86 -7 159
-13 172 -24 45 -103 34 -122 -18 -10 -25 -16 -29 -42 -27 -25 3 -30 7 -27 28
3 35 32 72 73 93 41 22 111 16 149 -12z m219 14 c16 -8 31 -22 35 -30 3 -9 6
-77 6 -151 0 -74 2 -134 4 -134 2 0 28 11 58 24 87 39 88 40 88 177 l0 120 33
-3 32 -3 3 -119 c1 -69 -1 -123 -7 -129 -7 -7 -3 -19 9 -35 26 -32 25 -63 -1
-96 -29 -37 -89 -37 -118 0 -19 24 -23 26 -51 14 -16 -7 -30 -16 -30 -21 0
-16 -71 -23 -81 -8 -5 8 -9 66 -7 129 l2 114 -32 8 c-67 18 -82 105 -24 140
33 21 45 22 81 3z m902 5 c82 -23 99 -62 99 -225 0 -125 -8 -146 -67 -170 -46
-19 -136 -19 -173 0 -48 25 -60 52 -60 133 0 99 24 141 81 142 95 1 107 -133
14 -156 -29 -7 -33 -34 -8 -59 13 -13 29 -16 70 -13 29 3 56 8 60 12 5 4 10
59 11 121 4 112 3 115 -23 141 -24 24 -32 26 -81 22 -37 -3 -61 -11 -77 -26
-24 -23 -77 -30 -77 -11 0 26 37 70 69 83 42 18 111 20 162 6z m369 -9 c55
-29 60 -48 60 -227 0 -88 -3 -163 -6 -166 -3 -3 -17 -3 -32 1 l-27 7 -5 159
-5 159 -27 15 c-36 21 -76 6 -97 -36 -12 -24 -23 -33 -42 -33 -35 0 -39 6 -27
43 13 37 45 76 73 87 35 15 99 11 135 -9z m385 -1 c68 -33 75 -55 75 -235 l0
-156 -32 3 -33 3 -3 151 c-3 171 -7 181 -79 191 -32 4 -45 0 -71 -22 -27 -23
-32 -33 -32 -71 0 -28 4 -43 10 -39 6 3 10 13 10 21 0 7 10 25 22 39 29 34 90
35 112 3 21 -30 20 -50 -6 -83 -18 -23 -27 -26 -59 -22 -43 6 -45 2 -55 -105
l-7 -68 -33 0 -34 0 0 53 c0 30 -7 76 -15 103 -8 27 -15 72 -15 99 0 122 127
192 245 135z m344 4 c62 -25 71 -54 71 -238 l0 -156 -35 0 -35 0 -2 162 -3
162 -27 15 c-37 21 -78 6 -98 -36 -11 -25 -21 -33 -42 -33 -39 0 -42 14 -17
66 34 70 104 92 188 58z m307 5 c33 -9 48 -9 59 1 16 13 55 4 55 -13 -1 -17
-22 -42 -42 -50 -10 -3 -45 -1 -79 5 -51 9 -63 8 -76 -4 -13 -13 -7 -17 54
-32 105 -27 113 -38 113 -163 0 -97 -2 -106 -25 -128 -34 -35 -86 -34 -114 1
-39 50 -19 116 39 129 28 6 30 10 30 50 0 49 11 43 -130 77 -45 11 -54 17 -52
33 6 41 23 71 50 88 32 20 58 21 118 6z m618 -3 c82 -25 87 -36 84 -210 l-3
-150 -35 -24 c-31 -21 -44 -23 -113 -20 -74 3 -81 5 -108 36 -26 29 -29 39
-29 102 0 90 18 136 57 144 58 13 103 -22 103 -79 0 -31 -41 -75 -70 -75 -24
0 -27 -31 -4 -54 17 -18 99 -22 124 -6 11 7 16 34 18 110 5 129 0 148 -43 166
-44 18 -122 8 -138 -17 -8 -12 -24 -19 -44 -19 -40 0 -43 18 -9 56 43 51 123
66 210 40z m766 -1 c16 -9 32 -25 35 -38 3 -12 4 -98 3 -192 l-3 -170 -27 -2
c-22 -1 -41 14 -110 89 -116 126 -115 125 -90 151 l21 20 50 -55 c28 -31 60
-67 71 -79 l19 -24 1 78 c0 71 -2 77 -20 77 -31 0 -70 44 -70 78 0 41 36 79
78 81 7 1 26 -6 42 -14z m235 -16 c18 -17 20 -33 20 -134 0 -63 1 -115 2 -115
1 0 16 26 34 58 18 31 38 64 46 73 10 12 11 23 4 43 -31 79 85 143 134 73 16
-22 20 -78 8 -91 -4 -4 -7 -71 -8 -149 l0 -142 -30 0 -30 0 -3 123 c-1 67 -6
122 -10 122 -4 0 -39 -53 -77 -117 -38 -65 -74 -121 -80 -126 -5 -4 -19 -6
-30 -5 -18 3 -20 12 -25 128 -5 115 -7 125 -25 128 -37 7 -65 43 -65 83 0 72
82 102 135 48z m484 25 c17 -4 45 -19 61 -34 l30 -28 0 -175 0 -176 -30 1 -30
1 0 149 c0 159 -6 183 -46 198 -39 15 -71 2 -89 -36 -13 -27 -22 -34 -45 -34
-24 0 -30 4 -30 23 0 34 34 81 71 100 37 18 60 20 108 11z m281 -11 c16 -9 31
-27 35 -40 7 -30 21 -22 30 17 6 27 10 30 46 30 26 0 46 -7 59 -20 19 -19 20
-31 18 -203 l-3 -182 -30 0 -30 0 -5 170 c-3 94 -7 164 -8 156 -3 -22 -54 -61
-95 -72 -48 -13 -101 3 -123 37 -23 34 -11 85 24 106 34 22 47 22 82 1z
m-5668 -28 c-6 -45 -31 -92 -60 -112 -40 -26 -142 -25 -179 3 -35 26 -44 86
-17 115 41 46 130 8 122 -52 -3 -20 0 -29 9 -29 22 0 63 47 63 73 0 31 9 39
40 35 21 -3 25 -7 22 -33z m-155 -221 c19 -19 24 -33 21 -55 -6 -37 11 -38 46
-3 16 17 26 38 26 56 0 27 3 29 33 26 29 -3 32 -6 28 -33 -4 -41 -25 -79 -57
-104 -21 -17 -41 -21 -94 -21 -57 0 -71 4 -94 25 -33 31 -35 79 -4 112 28 30
63 29 95 -3z"/>
<path d="M3107 6335 c-38 -8 -92 -27 -120 -43 -48 -27 -137 -120 -137 -143 0
-6 122 -9 338 -7 311 2 403 -3 547 -28 28 -4 25 -1 -35 56 -35 34 -92 77 -126
96 -121 68 -328 98 -467 69z"/>
<path d="M2994 4033 c-69 -34 -96 -145 -52 -209 46 -66 142 -81 196 -31 79 73
65 187 -28 235 -51 26 -73 27 -116 5z"/>
<path d="M5582 4763 c-43 -28 -72 -74 -72 -113 0 -64 80 -140 147 -140 89 0
143 57 143 150 0 66 -17 94 -67 115 -54 23 -103 19 -151 -12z"/>
<path d="M7250 2900 c0 -15 7 -20 25 -20 18 0 25 5 25 20 0 15 -7 20 -25 20
-18 0 -25 -5 -25 -20z"/>
<path d="M2436 2424 c-20 -20 -9 -44 20 -44 19 0 24 5 24 24 0 29 -24 40 -44
20z"/>
<path d="M7183 2433 c-21 -8 -16 -53 6 -53 30 0 45 25 26 44 -9 9 -17 16 -18
15 -1 0 -8 -3 -14 -6z"/>
<path d="M863 2433 c-18 -6 -16 -42 2 -49 8 -4 22 -1 30 6 24 20 -1 54 -32 43z"/>
<path d="M1197 2686 c-10 -26 4 -47 27 -44 30 4 30 52 0 56 -12 2 -24 -4 -27
-12z"/>
<path d="M1435 2420 c-8 -25 1 -40 25 -40 22 0 34 28 19 46 -16 20 -37 17 -44
-6z"/>
<path d="M1630 2685 c-11 -13 -11 -19 3 -32 21 -21 49 -9 45 19 -4 28 -30 35
-48 13z"/>
<path d="M1870 2425 c-18 -21 -5 -47 22 -43 26 3 37 36 16 49 -18 12 -24 11
-38 -6z"/>
<path d="M3127 2693 c-4 -3 -7 -17 -7 -30 0 -18 6 -23 24 -23 13 0 27 7 30 16
11 28 -27 57 -47 37z"/>
<path d="M3940 2686 c-18 -22 -5 -48 22 -44 17 2 23 10 23 28 0 29 -26 38 -45
16z"/>
<path d="M4174 2415 c-4 -9 -2 -21 4 -27 16 -16 47 -5 47 17 0 26 -42 34 -51
10z"/>
<path d="M4760 2560 c-12 -7 -12 -13 -4 -27 17 -28 49 -23 49 7 0 27 -21 36
-45 20z"/>
<path d="M5553 2584 c-3 -8 -1 -20 5 -26 16 -16 42 -2 42 22 0 24 -38 28 -47
4z"/>
<path d="M6293 2433 c-18 -7 -16 -42 3 -50 8 -3 23 1 31 10 13 13 14 19 3 31
-13 17 -17 18 -37 9z"/>
<path d="M6782 2558 c-18 -18 -15 -36 9 -43 25 -8 42 6 37 31 -4 23 -29 29
-46 12z"/>
<path d="M7624 2685 c-16 -41 27 -60 50 -22 8 14 8 20 -4 27 -22 14 -40 12
-46 -5z"/>
<path d="M7847 2694 c-4 -4 -7 -18 -7 -31 0 -18 5 -23 26 -23 22 0 25 4 22 27
-3 27 -26 41 -41 27z"/>
<path d="M8082 2683 c-13 -26 -4 -43 24 -43 22 0 25 4 22 27 -4 33 -32 43 -46
16z"/>
<path d="M8630 2685 c-16 -20 -6 -45 19 -45 25 0 34 14 26 40 -8 24 -28 26
-45 5z"/>
<path d="M2797 2684 c-4 -4 -7 -16 -7 -26 0 -13 7 -18 26 -18 21 0 25 4 22 22
-3 23 -27 35 -41 22z"/>
<path d="M2796 2451 c-10 -16 6 -42 23 -39 9 2 17 13 19 26 3 16 -2 22 -17 22
-11 0 -22 -4 -25 -9z"/>
</g>
</svg>
